<svg width="16" height="11" viewBox="0 0 16 11" fill="none" xmlns="http://www.w3.org/2000/svg">
<path d="M4.63976 1.86516C5.88231 0.684366 7.76102 0.709051 8.97641 1.75123L6.27214 4.32907C5.18393 5.36638 4.94698 7.01365 5.6987 8.31559C5.88497 8.63818 6.11594 8.91493 6.37833 9.14401L5.46721 10.0099C3.949 11.4526 1.48101 11.0957 0.433767 9.28198C-0.31413 7.98665 -0.077046 6.34761 1.00722 5.31723L4.63976 1.86516Z" fill="url(#paint0_linear_17837_1206)"/>
<path d="M9.86688 0.900011C11.394 -0.555644 13.881 -0.197953 14.9359 1.62907C15.6876 2.93101 15.4507 4.57829 14.3625 5.61559L10.7643 9.04535C9.50687 10.244 7.59865 10.213 6.375 9.14467L9.09651 6.55844C10.1808 5.52805 10.4178 3.88896 9.66991 2.59362C9.47977 2.26431 9.24271 1.98309 8.97309 1.75188L9.86688 0.900011Z" fill="url(#paint1_linear_17837_1206)"/>
<defs>
<linearGradient id="paint0_linear_17837_1206" x1="0.651036" y1="9.65827" x2="8.98314" y2="1.74581" gradientUnits="userSpaceOnUse">
<stop stop-color="#C800FF"/>
<stop offset="1" stop-color="#C800FF" stop-opacity="0.2"/>
</linearGradient>
<linearGradient id="paint1_linear_17837_1206" x1="6.37206" y1="9.14097" x2="14.5862" y2="1.29658" gradientUnits="userSpaceOnUse">
<stop stop-color="#2C6FFF" stop-opacity="0.2"/>
<stop offset="1" stop-color="#2C6FFF"/>
</linearGradient>
</defs>
</svg>
